<svg width="26" height="21" viewBox="0 0 26 21" fill="none" xmlns="http://www.w3.org/2000/svg">
<path d="M17.8724 12.1406C17.0912 13.1953 16.3099 14.2891 15.9584 15.5H9.70837C9.31775 14.2891 8.5365 13.1953 7.75525 12.1406C7.55994 11.8672 7.36462 11.5938 7.16931 11.3203C6.38806 10.1875 5.95837 8.85938 5.95837 7.375C5.95837 3.58594 9.00525 0.5 12.8334 0.5C16.6224 0.5 19.7084 3.58594 19.7084 7.375C19.7084 8.85938 19.2396 10.1875 18.4584 11.3203C18.2631 11.5938 18.0677 11.8672 17.8724 12.1406ZM9.70837 20.5V16.75H15.9584V20.5H9.70837ZM12.8334 4.25V3C10.4115 3 8.45837 4.99219 8.45837 7.375H9.70837C9.70837 5.65625 11.0756 4.25 12.8334 4.25ZM3.73181 1.125L3.96619 1.28125L4.90369 1.90625L5.68494 2.45312L4.63025 4.01562L3.849 3.46875L2.9115 2.84375L2.67712 2.6875L1.89587 2.17969L2.95056 0.617188L3.73181 1.125ZM22.9506 2.6875L22.7162 2.84375L21.7787 3.46875L20.9974 4.01562L19.9427 2.45312L20.724 1.90625L21.6615 1.28125L21.8959 1.125L22.6771 0.617188L23.7318 2.17969L22.9506 2.6875ZM1.27087 6.75H3.14587H4.08337V8.625H3.14587H1.27087H0.333374V6.75H1.27087ZM22.5209 6.75H24.3959H25.3334V8.625H24.3959H22.5209H21.5834V6.75H22.5209ZM4.90369 13.4688L3.96619 14.0938L3.73181 14.25L2.95056 14.7969L1.89587 13.2344L2.67712 12.6875L2.9115 12.5312L3.849 11.9062L4.63025 11.3984L5.68494 12.9609L4.90369 13.4688ZM21.7787 11.9453L22.7162 12.5703L22.9506 12.7266L23.7318 13.2344L22.6771 14.7969L21.8959 14.25L21.6615 14.0938L20.724 13.4688L19.9427 12.9609L20.9974 11.3984L21.7787 11.9453Z" fill="#777674"/>
</svg>
