<svg width="21" height="21" viewBox="0 0 21 21" fill="none" xmlns="http://www.w3.org/2000/svg">
<path d="M15.6666 12.4141V17.375L9.41662 20.5V14.9532C9.41662 14.1328 9.06506 13.3125 8.47912 12.6875C7.85412 12.1016 7.03381 11.75 6.21349 11.75H0.66662L3.79162 5.50004H8.75256C12.151 -0.0859003 17.5026 0.187537 20.276 0.890662C20.9791 3.6641 21.2526 9.01566 15.6666 12.4141ZM17.2291 5.50004C17.2291 4.95316 16.9166 4.44535 16.4479 4.17191C15.9401 3.89847 15.3541 3.89847 14.8854 4.17191C14.3776 4.44535 14.1041 4.95316 14.1041 5.50004C14.1041 6.08597 14.3776 6.59379 14.8854 6.86722C15.3541 7.14066 15.9401 7.14066 16.4479 6.86722C16.9166 6.59379 17.2291 6.08597 17.2291 5.50004ZM7.15099 18.8594C5.23693 20.8125 0.66662 20.5 0.66662 20.5C0.66662 20.5 0.35412 15.9297 2.30724 14.0157C3.63537 12.6875 5.82287 12.6875 7.15099 14.0157C8.47912 15.3438 8.47912 17.5313 7.15099 18.8594ZM5.31506 17.4532C5.78381 17.0235 5.78381 16.2813 5.31506 15.8516C4.88537 15.3828 4.14318 15.3828 3.71349 15.8516C3.04943 16.4766 3.16662 18 3.16662 18C3.16662 18 4.69006 18.1172 5.31506 17.4532Z" fill="#777674"/>
</svg>
