<svg width="20" height="21" viewBox="0 0 20 21" fill="none" xmlns="http://www.w3.org/2000/svg">
<path d="M10 0.5C12.0703 0.5 13.8672 1.82812 14.6094 3.625H15C17.7344 3.625 20 5.89062 20 8.625C20 11.3984 17.7344 13.625 15 13.625H13.2422C12.5781 14.7578 11.3672 15.5 10 15.5C8.59375 15.5 7.38281 14.7578 6.71875 13.625H5C2.22656 13.625 0 11.3984 0 8.625C0 5.89062 2.22656 3.625 5 3.625H5.35156C6.09375 1.82812 7.89062 0.5 10 0.5ZM0 18H2.5V20.5H0V18ZM7.1875 15.8125V18.9375H4.0625V15.8125H7.1875Z" fill="#777674"/>
</svg>
